<?xml version="1.0" standalone="no"?>
<!DOCTYPE svg PUBLIC "-//W3C//DTD SVG 20010904//EN"
 "http://www.w3.org/TR/2001/REC-SVG-20010904/DTD/svg10.dtd">
<svg version="1.0" xmlns="http://www.w3.org/2000/svg"
 width="567.000000pt" height="567.000000pt" viewBox="0 0 567.000000 567.000000"
 preserveAspectRatio="xMidYMid meet">

<g transform="translate(0.000000,567.000000) scale(0.100000,-0.100000)"
fill="#000000" stroke="none">
<path d="M2640 5003 c-517 -53 -962 -258 -1323 -612 -185 -181 -307 -346 -421
-571 -150 -294 -221 -574 -233 -911 -27 -761 340 -1470 977 -1892 839 -555
1967 -453 2694 243 687 658 872 1677 457 2525 -334 682 -977 1132 -1733 1214
-90 10 -337 12 -418 4z m440 -238 c457 -61 861 -266 1168 -590 512 -540 673
-1324 415 -2015 -232 -622 -758 -1080 -1404 -1224 -364 -80 -760 -55 -1097 70
-639 238 -1095 772 -1239 1449 -25 121 -27 147 -28 370 0 252 5 304 52 490 65
263 202 534 381 756 128 158 346 345 531 453 191 111 456 204 671 235 41 6 86
13 100 15 66 9 356 4 450 -9z"/>
<path d="M2625 4633 c-704 -90 -1292 -572 -1510 -1238 -65 -199 -80 -302 -80
-560 0 -201 3 -244 23 -344 103 -509 408 -940 857 -1211 162 -98 365 -176 575
-222 93 -20 133 -22 350 -22 218 0 257 2 350 22 735 160 1289 727 1426 1459
22 121 30 399 14 532 -62 533 -370 1021 -830 1316 -110 71 -299 158 -430 199
-183 57 -321 76 -533 75 -100 -1 -195 -4 -212 -6z m-192 -997 c104 -31 146
-92 147 -212 0 -39 -3 -132 -7 -207 l-6 -137 -31 -4 c-17 -3 -59 -7 -93 -9
l-63 -3 0 28 0 27 -35 -23 c-19 -13 -55 -27 -80 -30 -84 -13 -149 12 -195 76
-17 22 -30 36 -30 30 0 -24 -63 -81 -106 -98 -49 -19 -198 -25 -266 -11 l-38
8 0 91 c0 71 3 89 13 85 8 -3 38 -8 68 -12 59 -7 109 6 109 29 0 13 -15 21
-94 48 -128 43 -141 219 -22 293 47 28 55 30 155 30 58 0 118 -3 134 -8 27 -7
27 -8 27 -90 l0 -83 -82 1 c-74 0 -83 -2 -83 -19 0 -13 17 -24 65 -42 37 -13
76 -35 91 -52 l25 -28 23 36 c34 54 80 81 151 87 46 4 70 1 100 -12 22 -10 43
-15 46 -12 12 12 -13 62 -37 74 -32 17 -105 16 -164 -2 -27 -8 -51 -13 -52
-11 -5 5 28 139 37 149 22 25 222 35 293 13z m1444 -1 c35 -11 62 -27 87 -55
52 -58 51 -52 48 -327 l-2 -172 -32 -5 c-18 -3 -63 -7 -100 -9 l-68 -5 0 31 0
30 -23 -21 c-12 -12 -46 -26 -75 -33 -90 -19 -162 9 -217 83 -14 18 -18 20
-23 8 -11 -31 -72 -77 -117 -90 -54 -15 -177 -18 -247 -7 l-48 8 -1 62 c0 52
-2 58 -10 37 -17 -42 -60 -79 -113 -97 -55 -18 -177 -23 -258 -10 l-48 8 0 90
0 90 38 -8 c20 -4 61 -8 90 -7 95 1 94 40 -3 69 -94 27 -135 90 -122 187 7 53
32 87 88 118 39 22 55 25 149 25 58 0 116 -3 130 -7 24 -7 25 -9 22 -90 l-3
-84 -70 4 c-117 7 -129 -31 -21 -65 61 -19 122 -71 122 -103 0 -10 7 -25 15
-33 19 -20 122 -31 158 -18 28 11 37 38 15 46 -110 38 -130 49 -153 83 -29 43
-34 125 -10 172 19 36 68 74 119 90 39 12 212 9 246 -4 12 -5 14 -23 12 -89
l-3 -82 -72 3 c-119 5 -129 -30 -19 -65 34 -11 70 -31 89 -51 18 -18 33 -27
33 -21 0 24 54 82 94 100 53 24 131 24 179 0 l37 -19 0 27 c0 34 -10 48 -43
60 -39 15 -92 14 -157 -4 -30 -8 -56 -15 -56 -15 -1 0 7 36 18 79 l20 79 47
10 c72 15 202 14 258 -3z m-1021 -997 c-3 -29 -8 -118 -10 -198 l-5 -145 45
93 45 93 72 -6 c92 -8 137 -15 137 -21 0 -3 -27 -57 -60 -119 l-60 -114 71
-111 c39 -61 70 -112 68 -114 -7 -6 -188 -96 -194 -96 -3 0 -31 51 -62 113
l-58 112 -3 -103 c-2 -70 -7 -104 -15 -107 -7 -2 -51 -6 -99 -10 l-88 -6 0
385 0 385 43 5 c42 6 99 11 150 14 l28 2 -5 -52z m-390 -170 c32 -15 56 -36
76 -67 l30 -46 -6 -214 c-3 -118 -7 -215 -8 -216 -2 -1 -45 -5 -95 -9 l-93 -7
0 32 0 32 -23 -21 c-42 -39 -142 -55 -204 -31 -34 12 -80 55 -98 89 -83 163
82 333 255 264 48 -19 55 -15 43 23 -15 45 -75 60 -172 41 -42 -9 -77 -15 -78
-14 -3 2 35 147 39 152 3 2 36 8 74 13 100 14 205 6 260 -21z m-488 -8 c34
-16 62 -32 62 -35 0 -3 -28 -42 -62 -86 -45 -58 -66 -78 -77 -73 -59 25 -89
27 -122 8 -61 -36 -64 -105 -6 -148 29 -21 40 -20 128 18 12 5 31 -13 74 -70
32 -42 58 -84 59 -92 2 -24 -71 -60 -148 -72 -113 -18 -198 5 -277 77 -54 49
-81 104 -87 179 -9 117 33 214 117 270 61 40 109 53 196 54 68 0 89 -4 143
-30z m1556 16 c65 -20 120 -60 155 -113 l30 -45 10 39 c12 43 47 81 101 109
38 20 181 26 253 11 l37 -8 0 -84 0 -83 -72 4 c-40 3 -79 1 -87 -4 -25 -17 -4
-40 52 -56 97 -28 137 -77 137 -169 0 -69 -28 -112 -95 -146 -45 -24 -60 -26
-170 -26 -66 0 -128 3 -137 7 -15 6 -18 21 -18 99 0 82 2 91 17 84 10 -3 45
-9 78 -12 45 -3 65 -1 80 10 18 14 18 17 5 30 -8 8 -38 22 -67 31 -56 18 -113
72 -113 106 0 55 -9 51 -152 -57 -124 -95 -137 -108 -117 -115 31 -12 84 0
124 28 l34 23 46 -75 c25 -41 45 -78 45 -83 0 -13 -75 -50 -135 -66 -128 -33
-244 -11 -325 62 -70 63 -93 124 -88 232 5 103 26 150 94 210 75 66 178 87
278 57z"/>
<path d="M2248 3301 c-34 -7 -68 -36 -68 -56 0 -8 11 -22 25 -31 45 -30 135 1
135 46 0 32 -44 52 -92 41z"/>
<path d="M3677 3300 c-58 -17 -74 -52 -39 -83 23 -21 64 -22 101 -2 48 25 51
63 5 84 -28 12 -28 12 -67 1z"/>
<path d="M2208 2139 c-77 -45 2 -116 87 -77 30 13 43 52 25 73 -14 17 -86 20
-112 4z"/>
<path d="M3392 2300 c-24 -23 -35 -56 -30 -90 3 -20 8 -18 71 29 37 29 67 56
67 60 0 27 -79 27 -108 1z"/>
</g>
</svg>
